Trimmed_running_0600000001_forces_filt50Hz.mot
version=1
nRows=33
nColumns=19
inDegrees=yes
endheader
time	R_ground_force_vx	R_ground_force_vy	R_ground_force_vz	R_ground_force_px	R_ground_force_py	R_ground_force_pz	R_ground_torque_x	R_ground_torque_y	R_ground_torque_z	L_ground_force_vx	L_ground_force_vy	L_ground_force_vz	L_ground_force_px	L_ground_force_py	L_ground_force_pz	L_ground_torque_x	L_ground_torque_y	L_ground_torque_z	
7.124500	  0.000000	  0.000000	  0.000000	  0.977230	  0.000000	 -0.173707	  0.000000	  0.000000	  0.000000	329.216189	601.856377	-53.144931	  0.684749	  0.000000	 -0.283670	  0.000000	-42.992247	  0.000000
7.125000	  0.000000	  0.000000	  0.000000	  0.980330	  0.000000	 -0.173779	  0.000000	  0.000000	  0.000000	320.970496	574.618232	-40.442190	  0.684468	  0.000000	 -0.282340	  0.000000	-42.943195	  0.000000
7.125500	  0.000000	  0.000000	  0.000000	  0.983586	  0.000000	 -0.173871	  0.000000	  0.000000	  0.000000	313.079784	547.312327	-27.854704	  0.684707	  0.000000	 -0.281007	  0.000000	-42.031809	  0.000000
7.126000	  0.000000	  0.000000	  0.000000	  0.986841	  0.000000	 -0.173962	  0.000000	  0.000000	  0.000000	305.539110	519.881735	-15.534248	  0.685356	  0.000000	 -0.279687	  0.000000	-40.277841	  0.000000
7.126500	  0.000000	  0.000000	  0.000000	  0.990097	  0.000000	 -0.174054	  0.000000	  0.000000	  0.000000	298.324653	492.272178	 -3.630217	  0.686281	  0.000000	 -0.278394	  0.000000	-37.724554	  0.000000
7.127000	  0.000000	  0.000000	  0.000000	  0.993352	  0.000000	 -0.174146	  0.000000	  0.000000	  0.000000	291.395280	464.437020	  7.713132	  0.687329	  0.000000	 -0.277150	  0.000000	-34.439070	  0.000000
7.127500	  0.000000	  0.000000	  0.000000	  0.996608	  0.000000	 -0.174237	  0.000000	  0.000000	  0.000000	284.694799	436.342745	 18.359192	  0.688324	  0.000000	 -0.275978	  0.000000	-30.511241	  0.000000
7.128000	  0.000000	  0.000000	  0.000000	  0.999863	  0.000000	 -0.174329	  0.000000	  0.000000	  0.000000	278.154825	407.974978	 28.181217	  0.689081	  0.000000	 -0.274905	  0.000000	-26.050858	  0.000000
7.128500	  0.000000	  0.000000	  0.000000	  1.003119	  0.000000	 -0.174421	  0.000000	  0.000000	  0.000000	271.698105	379.344908	 37.064249	  0.689411	  0.000000	 -0.273966	  0.000000	-21.183279	  0.000000
7.129000	  0.000000	  0.000000	  0.000000	  1.006374	  0.000000	 -0.174512	  0.000000	  0.000000	  0.000000	265.242246	350.495730	 44.906791	  0.689124	  0.000000	 -0.273200	  0.000000	-16.043863	  0.000000
7.129500	  0.000000	  0.000000	  0.000000	  1.009630	  0.000000	 -0.174604	  0.000000	  0.000000	  0.000000	258.703705	321.508752	 51.622283	  0.688041	  0.000000	 -0.272652	  0.000000	-10.771718	  0.000000
7.130000	  0.000000	  0.000000	  0.000000	  1.012885	  0.000000	 -0.174696	  0.000000	  0.000000	  0.000000	252.001868	292.508933	 57.140398	  0.686005	  0.000000	 -0.272373	  0.000000	 -5.503429	  0.000000
7.130500	  0.000000	  0.000000	  0.000000	  1.016120	  0.000000	 -0.174713	  0.000000	  0.000000	  0.000000	245.062957	263.669727	 61.408150	  0.682885	  0.000000	 -0.272418	  0.000000	 -0.367411	  0.000000
7.131000	  0.000000	  0.000000	  0.000000	  1.019356	  0.000000	 -0.174731	  0.000000	  0.000000	  0.000000	237.823423	235.217291	 64.390831	  0.678586	  0.000000	 -0.272846	  0.000000	  4.520595	  0.000000
7.131500	  0.000000	  0.000000	  0.000000	  1.022591	  0.000000	 -0.174748	  0.000000	  0.000000	  0.000000	230.232527	207.434124	 66.072760	  0.671395	 -0.000000	 -0.275500	  0.000000	  9.060596	  0.000000
7.132000	  0.000000	  0.000000	  0.000000	  1.025827	  0.000000	 -0.174766	  0.000000	  0.000000	  0.000000	222.254065	180.651222	 66.457851	  0.664205	 -0.000000	 -0.278154	  0.000000	 13.169931	  0.000000
7.132500	  0.000000	  0.000000	  0.000000	  1.029062	  0.000000	 -0.174783	  0.000000	  0.000000	  0.000000	213.867355	155.207669	 65.569890	  0.657015	 -0.000000	 -0.280809	  0.000000	 16.783550	  0.000000
7.133000	  0.000000	  0.000000	  0.000000	  1.032298	  0.000000	 -0.174801	  0.000000	  0.000000	  0.000000	205.067748	131.391316	 63.452269	  0.649824	 -0.000000	 -0.283463	  0.000000	 19.853413	  0.000000
7.133500	  0.000000	  0.000000	  0.000000	  1.035533	  0.000000	 -0.174818	  0.000000	  0.000000	  0.000000	195.866856	109.406057	 60.166947	  0.642634	 -0.000000	 -0.286118	  0.000000	 22.347370	  0.000000
7.134000	  0.000000	  0.000000	  0.000000	  1.038769	  0.000000	 -0.174835	  0.000000	  0.000000	  0.000000	186.292543	 89.374577	 55.792522	  0.635443	  0.000000	 -0.288772	  0.000000	 24.247777	  0.000000
7.134500	  0.000000	  0.000000	  0.000000	  1.042004	  0.000000	 -0.174853	  0.000000	  0.000000	  0.000000	176.388616	 71.351802	 50.421521	  0.628253	  0.000000	 -0.291426	  0.000000	 25.549807	  0.000000
7.135000	  0.000000	  0.000000	  0.000000	  1.045240	  0.000000	 -0.174870	  0.000000	  0.000000	  0.000000	166.214124	 55.337185	 44.157328	  0.621063	  0.000000	 -0.294081	  0.000000	 26.259149	  0.000000
7.135500	  0.000000	  0.000000	  0.000000	  1.048538	  0.000000	 -0.174893	  0.000000	  0.000000	  0.000000	155.842059	 41.285764	 37.111140	  0.613872	  0.000000	 -0.296735	  0.000000	 26.388958	  0.000000
7.136000	  0.000000	  0.000000	  0.000000	  1.051837	  0.000000	 -0.174915	  0.000000	  0.000000	  0.000000	145.357318	 29.118007	 29.399227	  0.606682	  0.000000	 -0.299389	  0.000000	 25.956359	  0.000000
7.136500	  0.000000	  0.000000	  0.000000	  1.055135	  0.000000	 -0.174937	  0.000000	  0.000000	  0.000000	134.853840	 18.728464	 21.140668	  0.599492	  0.000000	 -0.302044	  0.000000	 24.979222	  0.000000
7.137000	  0.000000	  0.000000	  0.000000	  1.058433	  0.000000	 -0.174959	  0.000000	  0.000000	  0.000000	  0.000000	  0.000000	  0.000000	  0.597186	  0.000000	 -0.302223	  0.000000	  0.000000	  0.000000
7.137500	  0.000000	  0.000000	  0.000000	  1.061732	  0.000000	 -0.174981	  0.000000	  0.000000	  0.000000	  0.000000	  0.000000	  0.000000	  0.594880	  0.000000	 -0.302402	  0.000000	  0.000000	  0.000000
7.138000	  0.000000	  0.000000	  0.000000	  1.065030	  0.000000	 -0.175003	  0.000000	  0.000000	  0.000000	  0.000000	  0.000000	  0.000000	  0.592573	  0.000000	 -0.302582	  0.000000	  0.000000	  0.000000
7.138500	  0.000000	  0.000000	  0.000000	  1.068329	  0.000000	 -0.175026	  0.000000	  0.000000	  0.000000	  0.000000	  0.000000	  0.000000	  0.590267	  0.000000	 -0.302761	  0.000000	  0.000000	  0.000000
7.139000	  0.000000	  0.000000	  0.000000	  1.071627	  0.000000	 -0.175048	  0.000000	  0.000000	  0.000000	  0.000000	  0.000000	  0.000000	  0.587961	  0.000000	 -0.302940	  0.000000	  0.000000	  0.000000
7.139500	  0.000000	  0.000000	  0.000000	  1.074926	  0.000000	 -0.175070	  0.000000	  0.000000	  0.000000	  0.000000	  0.000000	  0.000000	  0.585655	  0.000000	 -0.303120	  0.000000	  0.000000	  0.000000
7.140000	  0.000000	  0.000000	  0.000000	  1.078224	  0.000000	 -0.175092	  0.000000	  0.000000	  0.000000	  0.000000	  0.000000	  0.000000	  0.583349	  0.000000	 -0.303299	  0.000000	  0.000000	  0.000000
7.140500	  0.000000	  0.000000	  0.000000	  1.081582	  0.000000	 -0.175073	  0.000000	  0.000000	  0.000000	  0.000000	  0.000000	  0.000000	  0.581176	  0.000000	 -0.303509	  0.000000	  0.000000	  0.000000
